<svg xmlns="http://www.w3.org/2000/svg" version="1.1" xmlns:xlink="http://www.w3.org/1999/xlink" xmlns:svgjs="http://svgjs.com/svgjs" width="512" height="512" x="0" y="0" viewBox="0 0 461.216 461.216" style="enable-background:new 0 0 512 512" xml:space="preserve" class=""><g><path fill="#fae26b" d="M346.398 365.175c-27.17 20.35-56.46 35.12-86.06 44.37-85.3 26.65-173.21 7.48-220.69-55.9-63.95-85.37-30.29-218.62 75.17-297.62 53.09-39.77 114.26-58.21 170.08-55.82 55.06 2.35 104.91 24.97 136.67 67.36 63.95 85.37 30.29 218.61-75.17 297.61z" data-original="#fae26b"></path><path fill="#edd15a" d="M260.338 409.545c-85.3 26.65-173.21 7.48-220.69-55.9-63.95-85.37-30.29-218.62 75.17-297.62 53.09-39.77 114.26-58.21 170.08-55.82-46.72 66.13-146.86 243.03-24.56 409.34z" data-original="#edd15a" class=""></path><path fill="#f0b48f" d="M421.218 461.215H39.998c16.48-87.67 137.37-136.83 137.37-136.83s113.91-7.78 156.31-10.68c0 0 .01 0 .01-.01h.01c9.68-.66 15.63-1.07 15.63-1.08 0 0 69.2 48.62 71.89 148.6z" data-original="#f0b48f"></path><path fill="#e2a27f" d="M333.678 313.706c-1.97 1.11-123.98 69.71-157.24 147.51H39.998c16.48-87.67 137.37-136.83 137.37-136.83s113.91-7.781 156.31-10.68z" data-original="#e2a27f"></path><path fill="#fae26b" d="M349.324 312.617s82.104-.402-62.139 119.598c0 0-64.91-1.599-127.576-45.299s-30.739-59.119-.87-53.743c0 0 10.87 59.709 120.203 81.043-.001-.001 55.431-49.197 70.382-101.599z" data-original="#fae26b"></path><path fill="#52528c" d="M285.583 139.164s-4.942-35.734 12.725-68.867 75.8 29.57 49.4 113.885z" data-original="#52528c"></path><path fill="#ffc4df" d="M305.651 138.997s-3.01-30.5 4.99-46 21.5 32.215 23 59.857-27.99-13.857-27.99-13.857z" data-original="#ffc4df"></path><path fill="#f0b48f" d="m293.648 341.835-8.43.99-71.57 8.42s-85-12.08-109-72.75c-12.86-32.5 1.65-37.25 17.89-34.66-1.26-14.37-4.84-100.67 89.03-116.78 1.83-1.6 4.46-3.91 7.58-6.7 8.05-7.21 19.39-17.61 29-27.36 11.13-11.29 17.01-10.48 17.35-3.38 7.89-7.34 36.88-32.59 39.9-10.37 2.67 19.65-15.92 35.66-24.87 42.14 22.79 5.06 65.29 21.57 82.76 75.04 5.29-6.6 11.99-13.39 20.02-18.59 22.67-14.669 50 125.331-89.66 164z" data-original="#f0b48f"></path><path fill="#e2a27f" d="m285.218 342.825-71.57 8.42s-85-12.08-109-72.75c-12.86-32.5 1.65-37.25 17.89-34.66-1.26-14.37-4.84-100.67 89.03-116.78 1.83-1.6 4.46-3.91 7.58-6.7 6.98.9 14.15 2.28 21.5 4.14 0 0-134.9 146.45 44.57 218.33z" data-original="#e2a27f"></path><path fill="#e2a27f" d="M280.528 121.385c-9.07-2.02-15.01-2.22-15.01-2.22s43.59-26.2 20.84-29.55-28.25 20.35-28.25 20.35c-8.5-35.75-17.46 14.53-17.46 14.53-10.61.16-20.27 1.05-29.08 2.56 6.57-5.74 23.24-20.53 36.58-34.06 11.13-11.29 17.01-10.48 17.35-3.38 7.89-7.34 36.88-32.59 39.9-10.37 2.67 19.651-15.92 35.66-24.87 42.14z" data-original="#e2a27f"></path><path fill="#52528c" d="M339.388 265.095c1.36-23.37-26.41-30.6-26.41-30.6s-34.93-2.77-55.34 9.37c0 0-40.67 15.36-31.7 43.1-22.04-.56-56.96-5.13-62.29-27.67-8-33.8 32-74.76 59.33-75.11s38 22.65 59.67-4.02c21.66-26.67 48.66-9.67 72 37.67 9.07 18.39.77 34.82-15.26 47.26z" data-original="#52528c"></path><path fill="#404077" d="M294.958 277.905c-12.8-.84-27.09-9.34-31.46-12.12-1.21-.78-2.24-1.85-2.8-3.18-.75-1.77-.66-3.55.12-5.25 3.67-7.86 22.43-14.02 42.8-10.45 4.64.81 7.87 2.31 9.95 4.22 9.9 9.09-5.95 27.61-18.61 26.78z" data-original="#404077"></path><path fill="#52528c" d="M313.568 251.126c-20.73 17.97-52.76 6.29-52.76 6.29l.01-.06c3.67-7.86 22.43-14.02 42.8-10.45 4.64.809 7.87 2.309 9.95 4.22zM134.641 214.497s-22-39.333-22-100.667c0-61.333 61.333-38 91.333 32 0 0-18.8 49.449-69.333 68.667z" data-original="#52528c"></path><path fill="#ffc4df" d="M140.641 192.497s-14.667-35.534-8.667-69.767 52.667 34.884 52.667 34.884-15.967 30.165-44 34.883z" data-original="#ffc4df"></path><path fill="#fae26b" d="M255.57 421.879c-10.849 10.42-19.916 23.343-25.188 39.337h11.458c3.513-8.8 8.609-17.199 13.978-22.355l4.29-3.646z" data-original="#fae26b"></path><path fill="#edd15a" d="m262.608 430.215 4.963 11.079s1.804 8.194 2.122 19.915l9.985.008 8.179-23.264z" data-original="#edd15a" class=""></path><path fill="#fae26b" d="m298.212 414.689 2.526 16.968s12.841 11.781 22.435 29.559l11.71-.001c-15.777-31.139-36.671-46.526-36.671-46.526zM289.719 436.415l-9.956-13.76c-2.41 12.276-2.817 25.263-.084 38.562l11.089-.001c-1.898-8.767-2.404-17.9-1.049-24.801z" data-original="#fae26b"></path><ellipse cx="279.763" cy="422.655" fill="#edd15a" rx="32.845" ry="18.894" data-original="#edd15a" class=""></ellipse></g></svg>